{"title":"North Country (2005) HDTVRip-AVC MediaClub","uid":10306189,"size":2957509906,"categoryP":"video","categoryS":"hd___movies","magnet":"?xt=urn:btih:6bbca7cf49375fb0f242bfc126077776c4687fb4&amp;dn=North+Country+%282005%29+HDTVRip-AVC+MediaClub&amp;tr=udp%3A%2F%2Ftracker.openbittorrent.com%3A80&amp;tr=udp%3A%2F%2Fopen.demonii.com%3A1337&amp;tr=udp%3A%2F%2Ftracker.coppersurfer.tk%3A6969&amp;tr=udp%3A%2F%2Fexodus.desync.com%3A6969","seeders":14,"leechers":3,"uploader":"neni69","files":1,"time":1402133977,"description":" &lt;a href=&quot; http://mediaclub.tv/&quot; rel=&quot;nofollow&quot; target=&quot;_NEW&quot;&gt; http://mediaclub.tv/&lt;/a&gt;   Welcome to MediaClub\n\n===================================================================\n\nUnique ID                      : 194889962427208448434968164653723006824 (0x929E7102DC6ED525984B943F24C7B768)\nComplete name                  : E:MCSevernaja.strana.2005.x264.HDTVRip(AVC)-MediaClubSevernaja.strana.2005.x264.HDTVRip(AVC)-MediaClub.mkv\nFormat                         : Matroska\nFormat version                 : Version 4 / Version 2\nFile size                      : 2.75 GiB\nDuration                       : 2h 1mn\nOverall bit rate               : 3 255 Kbps\nMovie name                     : -= Release MediaClub =-\nEncoded date                   : UTC 2014-06-04 18:37:37\nWriting application            : mkvmerge v6.4.1 ('Omega Point') built on Sep 16 2013 22:05:10\nWriting library                : libebml v1.3.0 + libmatroska v1.4.1\n\nVideo\nID                             : 1\nFormat                         : AVC\nFormat/Info                    : Advanced Video Codec\nFormat profile                 : &lt;a class=&quot;__cf_email__&quot; href=&quot;/cdn-cgi/l/email-protection&quot; data-cfemail=&quot;7931101e1139354d5748&quot;&gt;[email&amp;#160;protected]&lt;/a&gt;&lt;script cf-hash='f9e31' type=&quot;text/javascript&quot;&gt;\n/* &lt;![CDATA[ */!function(){try{var t=&quot;currentScript&quot;in document?document.currentScript:function(){for(var t=document.getElementsByTagName(&quot;script&quot;),e=t.length;e--;)if(t[e].getAttribute(&quot;cf-hash&quot;))return t[e]}();if(t&amp;&amp;t.previousSibling){var e,r,n,i,c=t.previousSibling,a=c.getAttribute(&quot;data-cfemail&quot;);if(a){for(e=&quot;&quot;,r=parseInt(a.substr(0,2),16),n=2;a.length-n;n+=2)i=parseInt(a.substr(n,2),16)^r,e+=String.fromCharCode(i);e=document.createTextNode(e),c.parentNode.replaceChild(e,c)}}}catch(u){}}();/* ]]&gt; */&lt;/script&gt;\nFormat settings, CABAC         : Yes\nFormat settings, ReFrames      : 10 frames\nCodec ID                       : V_MPEG4/ISO/AVC\nDuration                       : 2h 1mn\nBit rate                       : 1 590 Kbps\nWidth                          : 1 024 pixels\nHeight                         : 422 pixels\nDisplay aspect ratio           : 2.40:1\nFrame rate                     : 25.000 fps\nColor space                    : YUV\nChroma subsampling             : 4:2:0\nBit depth                      : 8 bits\nScan type                      : Progressive\nBits/(Pixel*Frame)             : 0.147\nStream size                    : 1.29 GiB (47%)\nTitle                          : Severnaja.strana.2005.x264.HDTVRip(AVC)-neni\nWriting library                : x264 core 142 r2409+42 04be48a tMod [8-bit@4:2:0 X86_64]\nEncoding settings              : cabac=1 / ref=10 / deblock=1:-3:-3 / analyse=0x3:0x133 / me=tesa / subme=11 / psy=1 / fade_compensate=0.00 / psy_rd=1.00:0.25 / mixed_ref=1 / me_range=48 / chroma_me=1 / trellis=2 / 8x8dct=1 / cqm=0 / deadzone=21,11 / fast_pskip=1 / chroma_qp_offset=-4 / threads=9 / lookahead_threads=1 / sliced_threads=0 / nr=0 / decimate=0 / interlaced=0 / bluray_compat=0 / constrained_intra=0 / fgo=0 / bframes=8 / b_pyramid=2 / b_adapt=2 / b_bias=0 / direct=3 / weightb=1 / open_gop=0 / weightp=2 / keyint=250 / keyint_min=25 / scenecut=40 / intra_refresh=0 / rc_lookahead=40 / rc=2pass / mbtree=1 / bitrate=1590 / ratetol=1.0 / qcomp=0.60 / qpmin=0:0:0 / qpmax=69:69:69 / qpstep=4 / cplxblur=20.0 / qblur=0.5 / ip_ratio=1.40 / aq=2:1.00 / aq-sensitivity=10.00 / aq-factor=1.00:1.00:1.00 / aq2=0 / aq3=0\nLanguage                       : English\nDefault                        : Yes\nForced                         : Yes\n\nAudio #1\nID                             : 2\nFormat                         : AC-3\nFormat/Info                    : Audio Coding 3\nMode extension                 : CM (complete main)\nFormat settings, Endianness    : Big\nCodec ID                       : A_AC3\nDuration                       : 2h 1mn\nBit rate mode                  : Constant\nBit rate                       : 384 Kbps\nChannel(s)                     : 6 channels\nChannel positions              : Front: L C R, Side: L R, LFE\nSampling rate                  : 48.0 KHz\nBit depth                      : 16 bits\nCompression mode               : Lossy\nStream size                    : 333 MiB (12%)\nTitle                          : MVO\nLanguage                       : Russian\nDefault                        : Yes\nForced                         : No\n\nAudio #2\nID                             : 3\nFormat                         : AC-3\nFormat/Info                    : Audio Coding 3\nMode extension                 : CM (complete main)\nFormat settings, Endianness    : Big\nCodec ID                       : A_AC3\nDuration                       : 2h 1mn\nBit rate mode                  : Constant\nBit rate                       : 448 Kbps\nChannel(s)                     : 6 channels\nChannel positions              : Front: L C R, Side: L R, LFE\nSampling rate                  : 48.0 KHz\nBit depth                      : 16 bits\nCompression mode               : Lossy\nStream size                    : 388 MiB (14%)\nTitle                          : P2 (tycoon)\nLanguage                       : Russian\nDefault                        : No\nForced                         : No\n\nAudio #3\nID                             : 4\nFormat                         : AC-3\nFormat/Info                    : Audio Coding 3\nMode extension                 : CM (complete main)\nFormat settings, Endianness    : Big\nCodec ID                       : A_AC3\nDuration                       : 2h 1mn\nBit rate mode                  : Constant\nBit rate                       : 448 Kbps\nChannel(s)                     : 6 channels\nChannel positions              : Front: L C R, Side: L R, LFE\nSampling rate                  : 48.0 KHz\nBit depth                      : 16 bits\nCompression mode               : Lossy\nStream size                    : 388 MiB (14%)\nTitle                          : L2 (Interfilm)\nLanguage                       : Russian\nDefault                        : No\nForced                         : No\n\nAudio #4\nID                             : 5\nFormat                         : AC-3\nFormat/Info                    : Audio Coding 3\nMode extension                 : CM (complete main)\nFormat settings, Endianness    : Big\nCodec ID                       : A_AC3\nDuration                       : 2h 1mn\nBit rate mode                  : Constant\nBit rate                       : 384 Kbps\nChannel(s)                     : 6 channels\nChannel positions              : Front: L C R, Side: L R, LFE\nSampling rate                  : 48.0 KHz\nBit depth                      : 16 bits\nCompression mode               : Lossy\nStream size                    : 333 MiB (12%)\nTitle                          : English\nLanguage                       : English\nDefault                        : No\nForced                         : No\n\nText #1\nID                             : 6\nFormat                         : UTF-8\nCodec ID                       : S_TEXT/UTF8\nCodec ID/Info                  : UTF-8 Plain Text\nTitle                          : Russian\nLanguage                       : Russian\nDefault                        : No\nForced                         : No\n\nText #2\nID                             : 7\nFormat                         : UTF-8\nCodec ID                       : S_TEXT/UTF8\nCodec ID/Info                  : UTF-8 Plain Text\nTitle                          : English\nLanguage                       : English\nDefault                        : No\nForced                         : No\n\nMenu\n00:00:00.000                   : en:Not Coming Back\n00:03:02.000                   : en:Disappointments\n00:07:08.000                   : en:Job at the Mine\n00:12:42.000                   : en:Where They're Not Wanted\n00:16:00.000                   : en:On the Job\n00:19:52.000                   : en:Pranks and Putdowns\n00:24:34.000                   : en:Take it Like a Man\n00:31:05.000                   : en:A Night Out\n00:37:59.000                   : en:Conveyer 4\n00:44:45.000                   : en:A Few Differences\n00:47:19.000                   : en:Hockey Game Slander\n00:53:39.000                   : en:Where's Our Respect?\n00:56:54.000                   : en:Meeting With Person\n01:01:59.000                   : en:Like a Bull-Headed Teenager\n01:06:29.000                   : en:Learn the Rules\n01:09:26.000                   : en:Deaf Ears\n01:12:27.200                   : en:I Want a Lawyer\n01:17:24.000                   : en:Other Plaintiffs Needed\n01:22:05.000                   : en:A Mother Rebels\n01:26:48.000                   : en:Union Meeting\n01:33:02.000                   : en:Covered in Soot\n01:34:44.000                   : en:Student/Teacher Relationship\n01:39:56.000                   : en:A Lot of Work to Hate\n01:44:01.000                   : en:You Were Mine\n01:47:08.000                   : en:Yellow-Ice Witness\n01:50:54.000                   : en:I Stand With Josey\n01:53:16.000                   : en:Behind the Wheel\n01:54:51.000                   : en:Coda, Dedication and End Credits","torrent":{"xt":"urn:btih:6bbca7cf49375fb0f242bfc126077776c4687fb4","amp;dn":"North+Country+%282005%29+HDTVRip-AVC+MediaClub","amp;tr":["udp%3A%2F%2Ftracker.openbittorrent.com%3A80","udp%3A%2F%2Fopen.demonii.com%3A1337","udp%3A%2F%2Ftracker.coppersurfer.tk%3A6969","udp%3A%2F%2Fexodus.desync.com%3A6969"],"infoHash":"6bbca7cf49375fb0f242bfc126077776c4687fb4","infoHashBuffer":{"type":"Buffer","data":[107,188,167,207,73,55,95,176,242,66,191,193,38,7,119,118,196,104,127,180]},"announce":[],"urlList":[]}}